HIERARCHY
ROOT root
{
	OFFSET 0.00 0.00 0.00
	CHANNELS 6 Xposition Yposition Zposition Zrotation Xrotation Yrotation
	JOINT lowerback
	{
		OFFSET 0 0 0
		CHANNELS 6 Xposition Yposition Zposition Zrotation Xrotation Yrotation
		JOINT upperback
		{
			OFFSET -0.214371 12.3768 -1.12219
			CHANNELS 6 Xposition Yposition Zposition Zrotation Xrotation Yrotation
			JOINT thorax
			{
				OFFSET -0.00137213 12.3873 0.296195
				CHANNELS 6 Xposition Yposition Zposition Zrotation Xrotation Yrotation
				JOINT lowerneck
				{
					OFFSET 0.0883157 12.5016 0.82912
					CHANNELS 6 Xposition Yposition Zposition Zrotation Xrotation Yrotation
					JOINT upperneck
					{
						OFFSET -1 10.1794 0.943522
						CHANNELS 6 Xposition Yposition Zposition Zrotation Xrotation Yrotation
						JOINT head
						{
							OFFSET 0.667525 10.2797 -1.57149
							CHANNELS 6 Xposition Yposition Zposition Zrotation Xrotation Yrotation
							End Site
							{
								OFFSET 0 0 0
							}
						}
					}
				}
				JOINT lclavicle
				{
					OFFSET 0.0883157 12.5016 0.82912
					CHANNELS 6 Xposition Yposition Zposition Zrotation Xrotation Yrotation
					JOINT lhumerus
					{
						OFFSET 20.61 4.45006 1.43784
						CHANNELS 6 Xposition Yposition Zposition Zrotation Xrotation Yrotation
						JOINT lradius
						{
							OFFSET 0 -30.3438 0
							CHANNELS 6 Xposition Yposition Zposition Zrotation Xrotation Yrotation
							JOINT lwrist
							{
								OFFSET 0 -18.964 0
								CHANNELS 6 Xposition Yposition Zposition Zrotation Xrotation Yrotation
								JOINT lhand
								{
									OFFSET 0 -9.48199 0
									CHANNELS 6 Xposition Yposition Zposition Zrotation Xrotation Yrotation
									JOINT lfingers
									{
										OFFSET 0 -3.17138 0
										CHANNELS 6 Xposition Yposition Zposition Zrotation Xrotation Yrotation
										End Site
										{
											OFFSET 0 -2.55685 0
										}
									}
								}
								JOINT lthumb
								{
									OFFSET 0 -9.48199 0
									CHANNELS 6 Xposition Yposition Zposition Zrotation Xrotation Yrotation
									End Site
									{
										OFFSET 0 -3.67114 0
									}
								}
							}
						}
					}
				}
				JOINT rclavicle
				{
					OFFSET 0.0883157 12.5016 0.82912
					CHANNELS 6 Xposition Yposition Zposition Zrotation Xrotation Yrotation
					JOINT rhumerus
					{
						OFFSET -20.61 4.45 1.44
						CHANNELS 6 Xposition Yposition Zposition Zrotation Xrotation Yrotation
						JOINT rradius
						{
							OFFSET 0 -29.5102 0
							CHANNELS 6 Xposition Yposition Zposition Zrotation Xrotation Yrotation
							JOINT rwrist
							{
								OFFSET 0 -19.2342 0
								CHANNELS 6 Xposition Yposition Zposition Zrotation Xrotation Yrotation
								JOINT rhand
								{
									OFFSET 0 -9.61712 0
									CHANNELS 6 Xposition Yposition Zposition Zrotation Xrotation Yrotation
									JOINT rfingers
									{
										OFFSET 0 -3.29215 0
										CHANNELS 6 Xposition Yposition Zposition Zrotation Xrotation Yrotation
										End Site
										{
											OFFSET 0 -2.557 0
										}
									}
								}
								JOINT rthumb
								{
									OFFSET 0 -9.61712 0
									CHANNELS 6 Xposition Yposition Zposition Zrotation Xrotation Yrotation
									End Site
									{
										OFFSET 0 -3.671 0
									}
								}
							}
						}
					}
				}
			}
		}
	}
	JOINT rfemur
	{
		OFFSET -8.46272 -9.62775 4.76248
		CHANNELS 6 Xposition Yposition Zposition Zrotation Xrotation Yrotation
		JOINT rtibia
		{
			OFFSET 1.00552e-005 -38.0331 0
			CHANNELS 6 Xposition Yposition Zposition Zrotation Xrotation Yrotation
			JOINT rfoot
			{
				OFFSET 1.14428e-005 -43.2815 0
				CHANNELS 6 Xposition Yposition Zposition Zrotation Xrotation Yrotation
				JOINT rtoes
				{
					OFFSET 0 -14.1868 -3.08763
					CHANNELS 6 Xposition Yposition Zposition Zrotation Xrotation Yrotation
					End Site
					{
						OFFSET 0 -7.27332 0
					}
				}
			}
		}
	}
	JOINT lfemur
	{
		OFFSET 9.10607 -9.62778 4.76249
		CHANNELS 6 Xposition Yposition Zposition Zrotation Xrotation Yrotation
		JOINT ltibia
		{
			OFFSET -1.01399e-005 -38.3535 0
			CHANNELS 6 Xposition Yposition Zposition Zrotation Xrotation Yrotation
			JOINT lfoot
			{
				OFFSET -1.12937e-005 -42.7176 0
				CHANNELS 6 Xposition Yposition Zposition Zrotation Xrotation Yrotation
				JOINT ltoes
				{
					OFFSET 0 -13.9965 -2.83857
					CHANNELS 6 Xposition Yposition Zposition Zrotation Xrotation Yrotation
					End Site
					{
						OFFSET 0 -7.16348 0
					}
				}
			}
		}
	}
}
MOTION
Frames: 4
Frame Time: 0.00833333
4.00403	99.5375	61.2136	-4.77081	-6.27272	14.4571	0 0 0 6.93891	2.84923	3.25972	-0.214371 12.3768 -1.12219 1.35578	-2.77134	4.71118	-0.00137213 12.3873 0.296195 -2.9209	-4.0188	2.13529	0.0883157 12.5016 0.82912 7.69963	-6.97568	10.1403	-1 10.1794 0.943522 -1.29919	8.75781	12.8782	0.667525 10.2797 -1.57149 -0.545168	4.42364	6.54423	0.0883157 12.5016 0.82912 -15	0	-0	20.61 4.45006 1.43784 20.0935	14.708	-160.177	0 -30.3438 0 -0	29.384	-0	0 -18.964 0 1.37915e-014	-1.82647e-015	-105.088	0 -9.48199 0 1.22245	4.37968	-2.58917e-014	0 -3.17138 0 -0	7.12502	-0	0 -9.48199 0 25	15	-1.36605e-015	0.0883157 12.5016 0.82912 15	0	-0	-20.61 4.45 1.44 -20.1723	-1.42788	167.088	0 -29.5102 0 -0	25.2812	-0	0 -19.2342 0 7.80698e-016	-3.21658e-015	117.285	0 -9.61712 0 1.22	4.38	-0	0 -3.29215 0 -0	7.12502	-0	0 -9.61712 0 25	15	-7.97034e-015	-8.46272 -9.62775 4.76248 12.5194	8.3252	-9.76058	1.00552e-005 -38.0331 0 -0	19.8321	-0	1.14428e-005 -43.2815 0 -25.5241	-71.7151	-26.6972	0 -14.1868 -3.08763 -0	-42.8023	-0	9.10607 -9.62778 4.76249 5.06852	-30.3956	-1.83465	-1.01399e-005 -38.3535 0 -0	68.8983	-0	-1.12937e-005 -42.7176 0 6.76919	-65.4449	7.43548	0 -13.9965 -2.83857 -0	-41.1164	-0
4.00333	99.5635	61.7617	-4.79828	-6.09716	14.4789	0 0 0 6.91646	2.79621	3.35178	-0.214371 12.3768 -1.12219 1.26351	-2.88872	4.83137	-0.00137213 12.3873 0.296195 -3.01857	-4.09173	2.18938	0.0883157 12.5016 0.82912 7.55778	-7.00267	10.0906	-1 10.1794 0.943522 -1.14076	8.61629	12.8089	0.667525 10.2797 -1.57149 -0.49396	4.41304	6.51257	0.0883157 12.5016 0.82912 -15	0	-0	20.61 4.45006 1.43784 20.2511	15.1837	-159.724	0 -30.3438 0 -0	29.2315	-0	0 -18.964 0 1.37977e-014	-1.8034e-015	-104.893	0 -9.48199 0 1.22245	4.37968	-2.58917e-014	0 -3.17138 0 -0	7.12502	-0	0 -9.48199 0 25	15	-1.36605e-015	0.0883157 12.5016 0.82912 15	0	-0	-20.61 4.45 1.44 -20.3805	-1.63859	167.814	0 -29.5102 0 -0	25.8483	-0	0 -19.2342 0 7.57675e-016	-3.17154e-015	116.872	0 -9.61712 0 1.22	4.38	-0	0 -3.29215 0 -0	7.12502	-0	0 -9.61712 0 25	15	-7.97034e-015	-8.46272 -9.62775 4.76248 12.5721	8.45194	-9.90447	1.00552e-005 -38.0331 0 -0	19.8444	-0	1.14428e-005 -43.2815 0 -25.2227	-71.6103	-26.3998	0 -14.1868 -3.08763 -0	-43.3362	-0	9.10607 -9.62778 4.76249 4.48922	-30.3049	-2.25178	-1.01399e-005 -38.3535 0 -0	65.76	-0	-1.12937e-005 -42.7176 0 6.61652	-65.8883	7.24299	0 -13.9965 -2.83857 -0	-41.1499	-0
4.00264	99.5759	62.3118	-4.81457	-5.9247	14.4959	0 0 0 6.87393	2.72552	3.43229	-0.214371 12.3768 -1.12219 1.17486	-2.98285	4.93286	-0.00137213 12.3873 0.296195 -3.09679	-4.13375	2.23625	0.0883157 12.5016 0.82912 7.41484	-7.02563	10.0344	-1 10.1794 0.943522 -0.990398	8.49011	12.7325	0.667525 10.2797 -1.57149 -0.443597	4.40206	6.47698	0.0883157 12.5016 0.82912 -15	0	-0	20.61 4.45006 1.43784 20.381	15.6114	-159.252	0 -30.3438 0 -0	28.9955	-0	0 -18.964 0 1.38018e-014	-1.78777e-015	-104.761	0 -9.48199 0 1.22245	4.37968	-2.58917e-014	0 -3.17138 0 -0	7.12502	-0	0 -9.48199 0 25	15	-1.36605e-015	0.0883157 12.5016 0.82912 15	0	-0	-20.61 4.45 1.44 -20.6038	-1.89201	168.532	0 -29.5102 0 -0	26.4091	-0	0 -19.2342 0 7.388e-016	-3.13402e-015	116.529	0 -9.61712 0 1.22	4.38	-0	0 -3.29215 0 -0	7.12502	-0	0 -9.61712 0 25	15	-7.97034e-015	-8.46272 -9.62775 4.76248 12.6121	8.59264	-10.0362	1.00552e-005 -38.0331 0 -0	19.8557	-0	1.14428e-005 -43.2815 0 -24.8927	-71.5297	-26.0694	0 -14.1868 -3.08763 -0	-43.8829	-0	9.10607 -9.62778 4.76249 3.95868	-30.1217	-2.63659	-1.01399e-005 -38.3535 0 -0	62.4894	-0	-1.12937e-005 -42.7176 0 6.25828	-66.3435	6.82766	0 -13.9965 -2.83857 -0	-41.2018	-0
4.00255	99.5736	62.8639	-4.82426	-5.75594	14.5063	0 0 0 6.81908	2.63337	3.50146	-0.214371 12.3768 -1.12219 1.09077	-3.05303	5.01594	-0.00137213 12.3873 0.296195 -3.15843	-4.14182	2.27603	0.0883157 12.5016 0.82912 7.26764	-7.04629	9.96813	-1 10.1794 0.943522 -0.847509	8.38426	12.6441	0.667525 10.2797 -1.57149 -0.393138	4.39011	6.43501	0.0883157 12.5016 0.82912 -15	0	-0	20.61 4.45006 1.43784 20.4824	15.9929	-158.763	0 -30.3438 0 -0	28.6828	-0	0 -18.964 0 1.38039e-014	-1.77984e-015	-104.694	0 -9.48199 0 1.22245	4.37968	-2.58917e-014	0 -3.17138 0 -0	7.12502	-0	0 -9.48199 0 25	15	-1.36605e-015	0.0883157 12.5016 0.82912 15	0	-0	-20.61 4.45 1.44 -20.8396	-2.18939	169.24	0 -29.5102 0 -0	26.9648	-0	0 -19.2342 0 7.23289e-016	-3.10275e-015	116.244	0 -9.61712 0 1.22	4.38	-0	0 -3.29215 0 -0	7.12502	-0	0 -9.61712 0 25	15	-7.97034e-015	-8.46272 -9.62775 4.76248 12.6423	8.75444	-10.1605	1.00552e-005 -38.0331 0 -0	19.8538	-0	1.14428e-005 -43.2815 0 -24.4967	-71.4728	-25.6673	0 -14.1868 -3.08763 -0	-44.4461	-0	9.10607 -9.62778 4.76249 3.47864	-29.8607	-2.99193	-1.01399e-005 -38.3535 0 -0	59.1227	-0	-1.12937e-005 -42.7176 0 5.68124	-66.8154	6.17708	0 -13.9965 -2.83857 -0	-41.2751	-0
